<svg width="20" height="20" viewBox="0 0 20 20" fill="none" xmlns="http://www.w3.org/2000/svg">
    <path d="M0 5.21798L0.425941 5.71208C5.94178 1.00766 14.0582 1.00766 19.5741 5.71208L20 5.21798C14.2387 0.304293 5.76126 0.304293 0 5.21798Z" fill="black"/>
    <path d="M2.39062 9.22667L2.85179 9.68783C6.80263 5.74571 13.199 5.74571 17.1499 9.68783L17.611 9.22667C13.4055 5.02991 6.59622 5.02991 2.39062 9.22667Z" fill="black"/>
    <path d="M5.61719 12.455L6.07835 12.9162C8.24508 10.7545 11.7527 10.7545 13.9195 12.9162L14.3806 12.455C11.959 10.0391 8.03879 10.0391 5.61719 12.455Z" fill="black"/>
    <path d="M11.1511 15.6837C10.5137 15.0481 9.48211 15.0481 8.84467 15.6837C8.20792 16.3207 8.20804 17.3532 8.84495 17.9899C9.48187 18.6267 10.5144 18.6266 11.1511 17.9896C11.7878 17.3528 11.7878 16.3205 11.1511 15.6837ZM10.69 17.529C10.3077 17.911 9.68824 17.9108 9.30628 17.5286C8.92429 17.1464 8.92449 16.5269 9.30673 16.1449C9.68877 15.7631 10.3079 15.7631 10.69 16.1449C11.0713 16.5275 11.0713 17.1464 10.69 17.529Z" fill="black"/>
</svg>