<svg width="35" height="33" viewBox="0 0 35 33" fill="none" xmlns="http://www.w3.org/2000/svg">
    <path d="M32.5391 1.73438H32.2656V0.640625C32.2656 0.495585 32.208 0.356485 32.1054 0.253926C32.0029 0.151367 31.8638 0.09375 31.7188 0.09375H29.5312C29.3862 0.09375 29.2471 0.151367 29.1446 0.253926C29.042 0.356485 28.9844 0.495585 28.9844 0.640625V1.73438H25.7031V0.640625C25.7031 0.495585 25.6455 0.356485 25.5429 0.253926C25.4404 0.151367 25.3013 0.09375 25.1562 0.09375H22.9688C22.8237 0.09375 22.6846 0.151367 22.5821 0.253926C22.4795 0.356485 22.4219 0.495585 22.4219 0.640625V1.73438H19.1406V0.640625C19.1406 0.495585 19.083 0.356485 18.9804 0.253926C18.8779 0.151367 18.7388 0.09375 18.5938 0.09375H16.4062C16.2612 0.09375 16.1221 0.151367 16.0196 0.253926C15.917 0.356485 15.8594 0.495585 15.8594 0.640625V1.73438H12.5781V0.640625C12.5781 0.495585 12.5205 0.356485 12.4179 0.253926C12.3154 0.151367 12.1763 0.09375 12.0312 0.09375H9.84375C9.69871 0.09375 9.55961 0.151367 9.45705 0.253926C9.35449 0.356485 9.29688 0.495585 9.29688 0.640625V1.73438H6.01562V0.640625C6.01562 0.495585 5.95801 0.356485 5.85545 0.253926C5.75289 0.151367 5.61379 0.09375 5.46875 0.09375H3.28125C3.13621 0.09375 2.99711 0.151367 2.89455 0.253926C2.79199 0.356485 2.73438 0.495585 2.73438 0.640625V1.73438H2.46094C1.95347 1.73494 1.46695 1.93678 1.10811 2.29561C0.749276 2.65445 0.547436 3.14097 0.546875 3.64844V27.7109C0.547436 28.2184 0.749276 28.7049 1.10811 29.0638C1.46695 29.4226 1.95347 29.6244 2.46094 29.625H9.47119C11.6144 31.7281 14.4973 32.9062 17.5 32.9062C20.5027 32.9062 23.3856 31.7281 25.5288 29.625H32.5391C33.0465 29.6244 33.5331 29.4226 33.8919 29.0638C34.2507 28.7049 34.4526 28.2184 34.4531 27.7109V3.64844C34.4526 3.14097 34.2507 2.65445 33.8919 2.29561C33.5331 1.93678 33.0465 1.73494 32.5391 1.73438ZM30.0781 1.1875H31.1719V3.375H30.0781V1.1875ZM23.5156 1.1875H24.6094V3.375H23.5156V1.1875ZM16.9531 1.1875H18.0469V3.375H16.9531V1.1875ZM10.3906 1.1875H11.4844V3.375H10.3906V1.1875ZM3.82812 1.1875H4.92188V3.375H3.82812V1.1875ZM17.5 31.8125C11.7708 31.8125 7.10938 27.1511 7.10938 21.4219C7.10938 15.6927 11.7708 11.0312 17.5 11.0312C23.2292 11.0312 27.8906 15.6927 27.8906 21.4219C27.8906 27.1511 23.2292 31.8125 17.5 31.8125ZM33.3594 27.7109C33.3592 27.9284 33.2727 28.137 33.1189 28.2908C32.9651 28.4446 32.7566 28.5311 32.5391 28.5312H26.5132C28.1158 26.5084 28.9868 24.0027 28.9844 21.4219C28.9844 15.0891 23.8328 9.9375 17.5 9.9375C11.1672 9.9375 6.01562 15.0891 6.01562 21.4219C6.01323 24.0027 6.88419 26.5084 8.48682 28.5312H2.46094C2.24343 28.5311 2.03489 28.4446 1.88109 28.2908C1.72729 28.137 1.64081 27.9284 1.64062 27.7109V6.10938H33.3594V27.7109ZM33.3594 5.01562H1.64062V3.64844C1.64081 3.43093 1.72729 3.22239 1.88109 3.06859C2.03489 2.91479 2.24343 2.82831 2.46094 2.82812H2.73438V3.92188C2.73438 4.06692 2.79199 4.20602 2.89455 4.30857C2.99711 4.41113 3.13621 4.46875 3.28125 4.46875H5.46875C5.61379 4.46875 5.75289 4.41113 5.85545 4.30857C5.95801 4.20602 6.01562 4.06692 6.01562 3.92188V2.82812H9.29688V3.92188C9.29688 4.06692 9.35449 4.20602 9.45705 4.30857C9.55961 4.41113 9.69871 4.46875 9.84375 4.46875H12.0312C12.1763 4.46875 12.3154 4.41113 12.4179 4.30857C12.5205 4.20602 12.5781 4.06692 12.5781 3.92188V2.82812H15.8594V3.92188C15.8594 4.06692 15.917 4.20602 16.0196 4.30857C16.1221 4.41113 16.2612 4.46875 16.4062 4.46875H18.5938C18.7388 4.46875 18.8779 4.41113 18.9804 4.30857C19.083 4.20602 19.1406 4.06692 19.1406 3.92188V2.82812H22.4219V3.92188C22.4219 4.06692 22.4795 4.20602 22.5821 4.30857C22.6846 4.41113 22.8237 4.46875 22.9688 4.46875H25.1562C25.3013 4.46875 25.4404 4.41113 25.5429 4.30857C25.6455 4.20602 25.7031 4.06692 25.7031 3.92188V2.82812H28.9844V3.92188C28.9844 4.06692 29.042 4.20602 29.1446 4.30857C29.2471 4.41113 29.3862 4.46875 29.5312 4.46875H31.7188C31.8638 4.46875 32.0029 4.41113 32.1054 4.30857C32.208 4.20602 32.2656 4.06692 32.2656 3.92188V2.82812H32.5391C32.7566 2.82831 32.9651 2.91479 33.1189 3.06859C33.2727 3.22239 33.3592 3.43093 33.3594 3.64844V5.01562Z" fill="white"/>
    <path d="M17.5 13.2188C17.645 13.2188 17.7841 13.1611 17.8867 13.0586C17.9893 12.956 18.0469 12.8169 18.0469 12.6719C18.0469 12.5268 17.9893 12.3877 17.8867 12.2852C17.7841 12.1826 17.645 12.125 17.5 12.125C12.3737 12.125 8.20312 16.2955 8.20312 21.4219C8.20312 21.5669 8.26074 21.706 8.3633 21.8086C8.46586 21.9111 8.60496 21.9688 8.75 21.9688C8.89504 21.9688 9.03414 21.9111 9.1367 21.8086C9.23926 21.706 9.29688 21.5669 9.29688 21.4219C9.29934 19.247 10.1644 17.162 11.7022 15.6241C13.2401 14.0863 15.3252 13.2212 17.5 13.2188Z" fill="white"/>
    <path d="M22.3355 16.4961C22.233 16.3935 22.0939 16.3359 21.9488 16.3359C21.8038 16.3359 21.6647 16.3935 21.5622 16.4961L14.9883 23.07L13.4413 21.5232C13.3387 21.4206 13.1996 21.363 13.0546 21.363C12.9096 21.363 12.7705 21.4206 12.6679 21.5232L11.1211 23.07C11.0185 23.1726 10.9609 23.3117 10.9609 23.4567C10.9609 23.6017 11.0185 23.7408 11.1211 23.8434L14.6014 27.3237C14.704 27.4262 14.8431 27.4838 14.9881 27.4838C15.1331 27.4838 15.2722 27.4262 15.3748 27.3237L23.8824 18.8163C23.9849 18.7137 24.0425 18.5746 24.0425 18.4296C24.0425 18.2846 23.9849 18.1455 23.8824 18.0429L22.3355 16.4961ZM14.9883 26.1636L12.2812 23.4566L13.0546 22.6832L14.6015 24.2299C14.704 24.3325 14.8431 24.3901 14.9881 24.3901C15.1332 24.3901 15.2723 24.3325 15.3748 24.2299L21.9487 17.6561L22.7222 18.4294L14.9883 26.1636Z" fill="white"/>
</svg>