<svg width="13" height="9" viewBox="0 0 13 9" fill="none" xmlns="http://www.w3.org/2000/svg">
    <path d="M11.8121 0.707806C11.7385 0.633605 11.6509 0.574709 11.5545 0.534517C11.458 0.494325 11.3545 0.473633 11.25 0.473633C11.1455 0.473633 11.042 0.494325 10.9455 0.534517C10.8491 0.574709 10.7615 0.633605 10.6879 0.707806L4.79 6.61364L2.31208 4.12781C2.23567 4.05399 2.14547 3.99595 2.04662 3.957C1.94778 3.91805 1.84223 3.89894 1.73601 3.90078C1.62978 3.90262 1.52496 3.92536 1.42752 3.96771C1.33008 4.01006 1.24194 4.07119 1.16813 4.1476C1.09431 4.22401 1.03627 4.31421 0.997319 4.41306C0.958366 4.5119 0.939262 4.61745 0.9411 4.72368C0.942938 4.8299 0.965681 4.93473 1.00803 5.03216C1.05038 5.1296 1.1115 5.21774 1.18792 5.29156L4.22792 8.33156C4.30151 8.40576 4.38907 8.46465 4.48554 8.50484C4.58202 8.54504 4.68549 8.56573 4.79 8.56573C4.89451 8.56573 4.99799 8.54504 5.09446 8.50484C5.19093 8.46465 5.27849 8.40576 5.35208 8.33156L11.8121 1.87156C11.8924 1.79742 11.9566 1.70745 12.0004 1.6073C12.0443 1.50716 12.0669 1.39901 12.0669 1.28968C12.0669 1.18035 12.0443 1.07221 12.0004 0.97206C11.9566 0.871914 11.8924 0.78194 11.8121 0.707806Z" fill="#3D6180" fill-opacity="0.5"/>
</svg>