<svg width="164" height="51" viewBox="0 0 164 51" fill="none" xmlns="http://www.w3.org/2000/svg">
<path d="M62.4122 9.51503C60.9143 9.36279 59.4549 9.17249 58.1106 9.02025C55.9214 11.2658 52.7719 19.9434 53.0792 22.7217C56.8047 19.7911 60.4534 16.9367 64.179 14.0441C64.7551 14.615 64.563 15.0717 64.2174 15.4143C63.4492 16.1755 62.6811 16.9367 61.7977 17.5837C58.8019 19.8292 55.7677 22.0747 52.8872 24.2061C52.3879 25.3859 52.0038 26.3374 51.5045 27.5173C52.0038 27.5173 52.3879 27.6314 52.6567 27.5173C54.7691 26.4897 56.8815 25.3859 58.9556 24.3203C59.4164 24.0919 59.8773 23.8635 60.3766 23.6352C60.6071 23.7874 60.8759 23.9016 60.9912 24.0919C61.452 24.8531 62.0666 24.8531 62.8347 24.6247C63.6797 24.3583 64.5246 24.0158 65.3696 23.8255C66.5986 23.5591 67.7125 24.5486 67.5204 25.7665C67.4052 26.5658 67.1748 27.4031 66.7139 28.0501C64.563 31.0188 62.4506 34.0635 60.0694 36.8419C56.92 40.4956 53.5401 43.9591 50.2755 47.4986C49.8146 47.9934 49.3921 48.5262 48.9312 49.021C47.6253 48.6023 47.5485 47.4606 47.4333 46.5471C47.2797 45.3673 47.2797 44.1113 47.5101 42.9314C48.0094 39.8106 48.6239 36.7277 49.3153 33.6449C49.7378 31.6277 50.2755 29.6105 49.5457 27.4411C47.6637 28.4307 46.3963 30.2195 44.5527 31.2471C43.3237 30.1053 44.86 29.4964 45.0904 28.3926C43.5157 29.3061 42.2483 30.1814 40.8272 30.8665C39.483 31.5135 38.2155 32.5031 36.4104 32.3128C36.4104 31.8941 36.2567 31.3994 36.4488 31.0949C36.8328 30.4479 37.3321 29.877 37.8314 29.3061C38.1771 28.8874 38.5228 28.4688 39.0605 27.7837C37.9851 27.8217 37.5242 28.3165 36.9865 28.6971C34.2979 30.4859 31.6094 32.3509 28.4216 33.2262C28.268 33.2643 28.0759 33.2643 27.8455 33.3023C27.231 32.3128 28.1143 31.78 28.4216 31.0949C28.7289 30.4479 29.1129 29.8008 29.6506 28.7732C27.5382 29.6105 26.6549 31.3232 25.1186 32.0844C24.7345 30.8665 24.8113 30.4098 25.6947 29.8008C26.0403 29.5344 26.5396 29.4203 26.8469 29.1538C27.1541 28.8874 27.3462 28.5068 27.6534 28.1262C26.2324 27.1367 24.7345 27.2889 23.3134 27.2128C22.8525 27.1747 22.3148 27.7076 21.8539 28.0501C18.0132 31.0949 14.1724 34.1397 10.3317 37.1844C10.0244 37.4508 9.60192 37.6411 9.17944 37.9076C8.87218 36.7277 9.33307 35.9285 9.94759 35.1673C11.023 33.9113 12.0984 32.6553 13.2122 31.4374C14.3645 30.1434 15.4399 28.7352 16.1696 27.0986C13.6731 28.2023 11.9064 30.0673 9.83236 31.4755C7.68154 32.9217 5.53072 34.4061 3.45672 35.8523C3.53353 36.271 3.57194 36.4994 3.61035 36.7658C3.14946 36.88 2.68857 37.0322 2.18927 37.1464C2.15086 36.9561 2.07405 36.8038 2.11246 36.7277C3.18787 35.3195 4.3785 34.1397 6.03002 33.2643C7.68154 32.3508 9.21784 31.171 10.7541 30.0292C15.0942 26.718 19.3958 23.3307 23.7359 19.9814C23.9279 19.8292 24.0815 19.677 24.3504 19.4486C23.6975 19.3344 23.2366 19.2583 22.6605 19.1822C23.3902 18.1165 28.4984 14.3486 30.4956 13.3591C30.4956 13.7777 30.6108 14.1203 30.4572 14.3867C30.2267 14.8053 29.8811 15.1479 29.305 15.871C30.2652 15.6807 30.8797 15.6426 31.4174 15.4143C33.0305 14.7292 34.8741 14.4628 36.2183 13.2068C36.4104 13.0546 36.6792 12.9785 36.9096 12.9023C40.5584 11.7986 43.6694 9.8195 46.7036 7.57398C46.934 7.38368 47.2413 7.34562 47.4717 7.23145C48.0862 7.61204 48.0862 7.99264 47.7022 8.37324C47.4717 8.60159 47.2029 8.75383 46.934 8.94413C43.4005 10.9613 40.3279 13.5494 37.1785 16.0232C33.1073 19.1822 29.0361 22.3411 24.9649 25.5001C24.7729 25.6523 24.5808 25.8426 24.2736 26.1091C25.6947 26.6038 27.0005 27.0606 28.6904 27.6314C28.8441 27.5934 29.4586 27.5173 30.1499 27.4031C31.4174 29.1538 29.6506 30.1434 29.0745 31.7038C29.7274 31.5135 30.1499 31.4755 30.4572 31.2852C32.9921 29.8008 35.4886 28.2785 38.0235 26.7941C41.3649 24.8531 44.5527 22.6837 47.6253 20.362C49.2001 19.1822 50.7748 18.0023 52.3111 16.7464C53.0024 16.2135 53.5401 15.4904 54.1162 14.8434C54.2314 14.7292 54.3851 14.5389 54.3851 14.3867C54.1162 12.5217 55.4605 11.2277 56.1134 9.66727C56.5743 8.56353 57.5345 8.18294 58.6099 8.29712C59.9157 8.48742 61.1832 8.86801 62.4506 9.17249C62.4506 9.32473 62.4506 9.43891 62.4122 9.51503ZM56.5743 28.5449C55.9598 28.1643 55.5373 27.9359 55.1532 27.6695C53.7321 28.2785 52.3879 28.8113 51.1588 29.3441C49.4689 33.6829 47.9326 44.4538 48.5855 47.8031C50.4675 46.1665 51.927 44.1874 54.001 42.8173C54.0394 42.7792 54.1162 42.7411 54.1162 42.665C54.9996 40.724 56.7279 39.43 58.0722 37.8314C60.7991 34.6725 63.3724 31.3994 65.5616 27.8217C66.0609 27.0225 66.445 26.1852 66.2914 25.2337C66.0609 25.1195 65.9457 25.0053 65.8305 25.0434C64.1406 25.424 62.489 25.8046 60.8375 26.1852C60.6839 26.2232 60.5303 26.4135 60.3766 26.4897C59.1092 27.2128 57.8033 27.8979 56.5743 28.5449ZM38.1003 13.8538C38.0235 13.7016 37.9467 13.5874 37.8698 13.4352C37.601 13.5494 37.3321 13.6635 37.0633 13.7777C34.7204 14.8053 32.416 15.7949 30.1115 16.8605C27.9223 17.8882 25.6947 18.8016 23.9663 20.5523C23.1982 21.3135 22.2764 21.8844 21.4314 22.5314C20.0488 23.6352 18.7045 24.7008 16.9378 26.1091C19.2806 26.1091 21.1242 26.1091 23.1214 26.1091C28.1527 22.265 33.2609 18.1926 38.1003 13.8538ZM38.1771 30.6001C42.8628 28.7352 47.2029 26.2994 51.3893 23.3307C51.8502 21.7703 52.6183 20.1717 52.6183 18.1165C47.2029 21.8464 42.2867 25.7285 38.1771 30.6001ZM21.4314 27.2508C19.2422 26.8703 17.5907 26.9464 16.3232 28.621C14.9406 30.4479 13.4811 32.1605 12.06 33.9494C11.868 34.2158 11.7143 34.5203 11.5223 34.7867C13.3274 33.7591 14.9406 32.5792 16.5537 31.3994C18.2052 30.1814 19.8183 29.0016 21.4314 27.2508ZM27.0389 16.8605C26.8085 16.9367 26.9237 16.8986 27.0389 16.8605C26.9237 16.8986 26.8085 16.8986 27.0389 16.8605Z" fill="white"/>
<path d="M119.831 12.1792C118.986 12.4075 118.065 12.4837 117.297 12.8643C113.033 14.8434 108.77 16.9366 104.852 19.5628C102.202 21.3516 99.6675 23.2546 97.5166 25.6523C97.0942 26.109 96.7485 26.6038 96.134 27.365C98.1696 27.4792 99.7059 27.1366 101.242 26.5657C101.78 26.3754 102.279 26.109 102.778 25.8807C104.315 25.1956 105.697 24.3583 106.926 23.1404C108.117 21.9605 109.538 20.971 110.882 19.9053C111.113 20.1717 111.267 20.362 111.497 20.5904C109.999 22.6075 107.541 23.5971 106.043 25.9187C109.807 25.3478 112.803 23.3307 116.26 22.5314C116.72 22.7598 117.181 22.9881 117.642 23.2546C119.14 22.912 120.753 21.7702 121.829 24.0157C123.211 23.0643 124.44 23.521 125.631 24.3583C126.745 23.7874 127.897 23.3687 129.241 23.8635C129.664 24.0157 130.317 23.7113 130.931 23.5971C130.778 22.6456 130.47 21.8463 131.046 20.971C131.853 19.8292 132.775 18.9157 134.042 18.459C134.81 18.1926 135.194 18.7254 135.617 19.5247C135.118 20.5143 134.541 21.5799 133.85 22.9501C136.193 22.3411 138.344 22.2269 140.303 21.2374C141.762 20.5143 143.26 19.8672 144.796 19.1441C145.027 19.4866 145.219 19.7531 145.488 20.1337C146.755 18.9919 148.022 17.812 149.367 16.6322C148.445 14.6531 149.136 12.9784 150.25 11.3419C152.363 8.29709 154.744 5.51873 157.778 3.34933C158.7 2.70232 158.738 2.70232 160.082 3.08291C158.008 8.22097 154.206 12.1792 150.481 16.7083C151.018 17.0508 151.479 17.2792 151.863 17.6217C153.246 18.7254 153.553 20.1717 152.9 21.7322C151.863 24.0919 150.673 26.4135 149.559 28.7732C149.405 29.0396 149.213 29.306 149.06 29.5344C149.597 31.3613 149.559 31.3993 148.061 32.5792C146.409 33.8732 144.95 35.3575 143.567 36.956C141.724 39.1635 139.765 41.2187 137.845 43.3501C137.768 43.4262 137.614 43.4262 137.268 43.5023C137.268 43.0837 137.115 42.6269 137.307 42.3225C137.691 41.6754 138.229 41.1045 138.766 40.5717C141.224 37.8695 143.759 35.1672 146.217 32.4269C146.793 31.7799 147.293 31.0187 147.792 30.2575C149.367 27.7837 151.134 25.3859 151.902 22.5695C152.631 20.0195 152.439 18.1546 149.789 17.165C146.179 20.7046 142.607 24.4725 137.845 26.6799C137.652 26.6038 137.46 26.5657 137.307 26.4896C137.153 26.4135 137 26.2993 136.808 26.1471C136.846 25.9568 136.846 25.7284 136.923 25.6143C137.691 24.7769 138.497 23.9777 139.611 22.8359C138.728 22.9881 138.229 23.0262 137.806 23.1784C136.27 23.6732 134.772 24.0919 133.12 24.0919C132.66 24.0919 132.16 24.3202 131.738 24.5866C130.816 25.1195 130.009 25.5762 128.896 25.0053C128.089 24.5486 127.282 24.8911 126.63 25.5762C126.361 25.8426 126.169 26.1471 125.823 26.6038C125.324 25.9949 124.94 25.462 124.594 25.0434C123.211 24.1299 122.251 26.1471 120.868 25.424C120.715 24.9292 120.561 24.3963 120.408 23.8254C117.527 24.2441 115.991 26.6419 113.993 28.1643C113.264 28.012 113.148 27.5553 113.456 27.1366C113.763 26.6799 114.224 26.2993 114.608 25.8807C115.107 25.2717 115.799 24.7389 115.914 23.5971C112.265 24.4725 109.269 26.8322 105.505 26.9083C105.16 26.6038 104.776 26.2993 104.43 25.9949C104.276 25.9949 104.123 25.9568 104.008 25.9949C102.087 26.718 100.205 27.5172 98.2848 28.0881C97.2862 28.3926 96.0956 28.5449 95.3658 27.1366C96.5565 25.6143 97.8239 24.0538 99.0529 22.4934C99.7827 22.4172 100.359 22.1128 100.589 21.3516C100.704 21.2374 100.858 21.0851 100.973 20.971C101.089 20.8568 101.204 20.7046 101.357 20.5904C101.434 20.5523 101.511 20.5143 101.549 20.4762C101.511 20.5143 101.473 20.5904 101.396 20.6284C101.281 20.7426 101.165 20.8568 101.012 21.009C100.897 21.1232 100.743 21.2754 100.628 21.3896C99.8211 21.3896 99.3986 21.8844 99.0913 22.5314C98.6689 22.7598 98.1696 22.9501 97.8239 23.2546C94.1368 26.4516 90.4881 29.6866 86.8009 32.8837C86.3401 33.3023 85.7639 33.5687 85.2646 33.9113L85.3031 33.9493C85.4951 33.6448 85.6103 33.2643 85.8792 33.0359C88.4525 30.6762 91.1026 28.3926 93.5991 25.9568C95.7883 23.7874 98.2848 22.0366 100.551 19.9434C101.933 18.6493 103.508 17.5456 105.083 16.4419C108.847 13.7777 112.649 11.1135 116.452 8.48739C117.143 8.03067 117.911 7.68814 118.679 7.38366C118.986 7.26948 119.447 7.42172 119.87 7.45978C119.755 8.41127 119.178 9.05829 118.679 8.94411C117.565 8.71575 117.028 9.47694 116.336 9.93366C112.188 12.7501 108.04 15.6046 103.931 18.459C103.316 18.8777 102.817 19.4486 102.356 20.0575C103.623 19.9434 104.2 18.7635 105.198 18.2687C106.274 17.7359 107.195 16.9747 108.232 16.3657C109.308 15.7187 110.422 15.1098 111.574 14.5008C112.649 13.968 113.763 13.4732 114.838 12.9784C115.914 12.4837 117.028 11.9508 118.103 11.456C119.178 10.9613 120.254 10.4665 121.598 9.85754C121.637 10.4284 121.79 10.8471 121.675 11.1516C121.252 11.9889 120.6 12.2934 119.831 12.1792C119.908 12.1411 120.023 12.1031 120.1 12.065C120.062 12.0269 119.985 11.9508 119.947 11.9128C119.908 12.0269 119.87 12.1031 119.831 12.1792ZM143.99 20.8949C144.067 20.8568 144.143 20.8187 144.143 20.7807C144.143 20.8187 144.067 20.8568 144.028 20.9329C143.913 21.0471 143.759 21.1993 143.644 21.3135C142.837 21.3135 142.377 21.7322 142.108 22.4553C141.762 22.6075 141.416 22.7598 141.032 22.874C141.071 22.9501 141.148 23.0643 141.186 23.1404C141.455 22.874 141.762 22.6456 142.031 22.3792C142.761 22.3031 143.337 21.9986 143.567 21.2374C143.759 21.1613 143.874 21.0471 143.99 20.8949ZM158.546 4.07247C158.431 4.07247 158.277 4.03441 158.2 4.11053C155.819 5.93739 153.63 7.95456 151.863 10.4284C151.134 11.456 150.557 12.5978 149.981 13.7016C149.674 14.3105 149.482 14.9575 149.981 15.6046C152.555 13.8157 158.354 6.16575 158.546 4.07247ZM133.812 20.4762C132.314 20.9329 132.199 21.0471 131.968 22.3792C132.89 22.0366 133.236 21.2374 133.812 20.4762Z" fill="white"/>
<path d="M74.933 26.2995C74.8178 26.0712 74.741 25.8428 74.549 25.4622C76.815 22.5316 79.1578 19.563 81.3471 16.7465C82.2689 16.5563 82.9602 16.404 83.6899 16.2137C83.882 16.1757 84.0356 16.0234 84.2276 15.9854C84.919 15.7189 85.6871 15.2242 86.3785 15.9092C87.1082 16.6324 87.0314 17.5839 86.5705 18.3831C85.6103 20.0958 84.5349 21.7324 83.4595 23.3689C82.9986 24.0159 82.3841 24.5488 81.8464 25.1577L81.8848 25.1958C81.7696 24.9674 81.6927 24.7391 81.5391 24.3965C82.2304 23.5592 83.0754 22.76 83.6515 21.8085C84.4581 20.4764 85.0726 19.0682 85.7255 17.66C85.8408 17.4316 85.6487 17.0891 85.5719 16.6704C84.1892 17.2033 82.8834 17.66 81.3471 18.2309C79.4267 20.7048 77.3527 23.407 75.2403 26.1092C75.1635 26.1853 75.0098 26.2234 74.8946 26.2615L74.933 26.2995Z" fill="white"/>
<path d="M74.8562 26.2231C74.6642 26.6037 74.5106 27.0605 74.2417 27.3649C73.4352 28.3164 72.5518 29.2679 71.6684 30.1814C71.5148 30.3716 71.1691 30.3716 70.593 30.5619C70.9771 29.5343 71.2844 28.8112 71.5532 28.0881C72.3598 28.3925 72.6286 27.7836 73.0127 27.3269C73.4736 26.756 73.9345 26.0709 74.8947 26.2993L74.8562 26.2231Z" fill="white"/>
<path d="M81.808 25.0815C81.1167 26.642 79.8109 27.6315 78.505 28.583C77.9673 28.9636 77.3144 29.0778 76.9303 28.0502C78.3514 27.7838 79.35 26.9084 80.2333 25.8427C80.6558 25.3099 81.1935 25.0815 81.8849 25.1196L81.808 25.0815Z" fill="white"/>
<path d="M85.2263 33.8354C84.727 34.9011 83.8052 35.472 82.6914 35.8146C83.5748 35.2056 83.9973 33.9877 85.2647 33.8735L85.2263 33.8354Z" fill="white"/>
<path d="M119.447 13.3213C119.409 13.3593 119.332 13.4355 119.332 13.4355C119.371 13.4355 119.447 13.3974 119.524 13.3593C119.486 13.3593 119.447 13.3213 119.447 13.3213Z" fill="white"/>
<path d="M119.486 13.3592C119.524 13.2831 119.563 13.1689 119.563 13.1689C119.563 13.207 119.486 13.2451 119.447 13.3212L119.486 13.3592Z" fill="white"/>
</svg>
